<svg id="visual" viewBox="0 0 960 540" width="960" height="540" xmlns="http://www.w3.org/2000/svg" xmlns:xlink="http://www.w3.org/1999/xlink" version="1.1"><rect x="0" y="0" width="960" height="540" fill="#45503b"></rect>
<path d="M0 275L80 262L160 298L240 304L320 321L400 347L480 273L560 309L640 319L720 228L800 285L880 246L960 214L960 541L880 541L800 541L720 541L640 541L560 541L480 541L400 541L320 541L240 541L160 541L80 541L0 541Z" fill="#e26d5c"></path>
<path d="M0 350L80 252L160 312L240 304L320 296L400 290L480 283L560 356L640 282L720 296L800 285L880 239L960 271L960 541L880 541L800 541L720 541L640 541L560 541L480 541L400 541L320 541L240 541L160 541L80 541L0 541Z" fill="#c86158"></path>
<path d="M0 367L80 404L160 358L240 371L320 309L400 355L480 313L560 382L640 368L720 321L800 309L880 280L960 401L960 541L880 541L800 541L720 541L640 541L560 541L480 541L400 541L320 541L240 541L160 541L80 541L0 541Z" fill="#ad5652"></path><path d="M0 375L80 397L160 381L240 390L320 392L400 376L480 387L560 359L640 396L720 402L800 432L880 338L960 412L960 541L880 541L800 541L720 541L640 541L560 541L480 541L400 541L320 541L240 541L160 541L80 541L0 541Z" fill="#934b4b"></path><path d="M0 377L80 456L160 383L240 441L320 374L400 374L480 434L560 455L640 386L720 404L800 434L880 455L960 409L960 541L880 541L800 541L720 541L640 541L560 541L480 541L400 541L320 541L240 541L160 541L80 541L0 541Z" fill="#794143"></path><path d="M0 480L80 466L160 442L240 475L320 434L400 471L480 451L560 448L640 486L720 436L800 469L880 465L960 459L960 541L880 541L800 541L720 541L640 541L560 541L480 541L400 541L320 541L240 541L160 541L80 541L0 541Z" fill="#60373a"></path><path d="M0 474L80 505L160 472L240 465L320 497L400 473L480 473L560 459L640 471L720 507L800 508L880 494L960 460L960 541L880 541L800 541L720 541L640 541L560 541L480 541L400 541L320 541L240 541L160 541L80 541L0 541Z" fill="#472d30"></path></svg>