<svg id="visual" viewBox="0 0 960 540" width="960" height="540" xmlns="http://www.w3.org/2000/svg" xmlns:xlink="http://www.w3.org/1999/xlink" version="1.1"><rect x="0" y="0" width="960" height="540" fill="#45503b"></rect>
<path d="M0 324L80 334L160 235L240 333L320 295L400 350L480 197L560 324L640 244L720 262L800 308L880 206L960 354L960 541L880 541L800 541L720 541L640 541L560 541L480 541L400 541L320 541L240 541L160 541L80 541L0 541Z" fill="#e26d5c"></path>
<path d="M0 324L80 330L160 283L240 251L320 293L400 321L480 268L560 290L640 321L720 341L800 282L880 236L960 272L960 541L880 541L800 541L720 541L640 541L560 541L480 541L400 541L320 541L240 541L160 541L80 541L0 541Z" fill="#c86158"></path>
<path d="M0 400L80 319L160 280L240 324L320 284L400 398L480 347L560 405L640 295L720 390L800 296L880 312L960 346L960 541L880 541L800 541L720 541L640 541L560 541L480 541L400 541L320 541L240 541L160 541L80 541L0 541Z" fill="#ad5652"></path><path d="M0 341L80 386L160 364L240 352L320 402L400 389L480 378L560 425L640 326L720 366L800 417L880 392L960 361L960 541L880 541L800 541L720 541L640 541L560 541L480 541L400 541L320 541L240 541L160 541L80 541L0 541Z" fill="#934b4b"></path><path d="M0 402L80 383L160 450L240 409L320 445L400 373L480 422L560 372L640 391L720 408L800 446L880 422L960 428L960 541L880 541L800 541L720 541L640 541L560 541L480 541L400 541L320 541L240 541L160 541L80 541L0 541Z" fill="#794143"></path><path d="M0 486L80 481L160 477L240 452L320 469L400 419L480 420L560 462L640 417L720 430L800 459L880 429L960 432L960 541L880 541L800 541L720 541L640 541L560 541L480 541L400 541L320 541L240 541L160 541L80 541L0 541Z" fill="#60373a"></path><path d="M0 470L80 511L160 490L240 479L320 473L400 512L480 461L560 505L640 502L720 465L800 481L880 463L960 497L960 541L880 541L800 541L720 541L640 541L560 541L480 541L400 541L320 541L240 541L160 541L80 541L0 541Z" fill="#472d30"></path></svg>