<svg id="visual" viewBox="0 0 960 540" width="960" height="540" xmlns="http://www.w3.org/2000/svg" xmlns:xlink="http://www.w3.org/1999/xlink" version="1.1"><rect x="0" y="0" width="960" height="540" fill="#45503b"></rect>
<path d="M0 275L80 225L160 265L240 237L320 225L400 268L480 259L560 311L640 227L720 302L800 215L880 344L960 192L960 541L880 541L800 541L720 541L640 541L560 541L480 541L400 541L320 541L240 541L160 541L80 541L0 541Z" fill="#e26d5c"></path>
<path d="M0 338L80 262L160 294L240 320L320 297L400 362L480 258L560 293L640 269L720 344L800 306L880 266L960 319L960 541L880 541L800 541L720 541L640 541L560 541L480 541L400 541L320 541L240 541L160 541L80 541L0 541Z" fill="#c86158"></path>
<path d="M0 345L80 343L160 334L240 340L320 376L400 357L480 388L560 323L640 343L720 360L800 351L880 356L960 327L960 541L880 541L800 541L720 541L640 541L560 541L480 541L400 541L320 541L240 541L160 541L80 541L0 541Z" fill="#ad5652"></path><path d="M0 416L80 329L160 362L240 328L320 428L400 363L480 419L560 354L640 357L720 417L800 388L880 346L960 327L960 541L880 541L800 541L720 541L640 541L560 541L480 541L400 541L320 541L240 541L160 541L80 541L0 541Z" fill="#934b4b"></path><path d="M0 449L80 392L160 424L240 448L320 425L400 392L480 405L560 396L640 374L720 424L800 438L880 381L960 420L960 541L880 541L800 541L720 541L640 541L560 541L480 541L400 541L320 541L240 541L160 541L80 541L0 541Z" fill="#794143"></path><path d="M0 434L80 439L160 482L240 466L320 441L400 419L480 421L560 438L640 482L720 425L800 434L880 463L960 486L960 541L880 541L800 541L720 541L640 541L560 541L480 541L400 541L320 541L240 541L160 541L80 541L0 541Z" fill="#60373a"></path><path d="M0 509L80 494L160 498L240 510L320 475L400 478L480 491L560 496L640 476L720 502L800 466L880 492L960 459L960 541L880 541L800 541L720 541L640 541L560 541L480 541L400 541L320 541L240 541L160 541L80 541L0 541Z" fill="#472d30"></path></svg>