<svg id="visual" viewBox="0 0 900 600" width="900" height="600">
    <rect x="0" y="0" width="900" height="600" fill="#45503b"></rect>
    <path d="M0 341L75 242L150 293L225 306L300 396L375 385L450 323L525 246L600 306L675 386L750 289L825 371L900 367L900 601L825 601L750 601L675 601L600 601L525 601L450 601L375 601L300 601L225 601L150 601L75 601L0 601Z" fill="#e26d5c"></path>
    <path d="M0 376L75 289L150 348L225 328L300 329L375 337L450 298L525 268L600 325L675 374L750 299L825 318L900 367L900 601L825 601L750 601L675 601L600 601L525 601L450 601L375 601L300 601L225 601L150 601L75 601L0 601Z" fill="#c86158"></path>
    <path d="M0 363L75 436L150 317L225 385L300 337L375 418L450 315L525 405L600 396L675 427L750 375L825 409L900 358L900 601L825 601L750 601L675 601L600 601L525 601L450 601L375 601L300 601L225 601L150 601L75 601L0 601Z" fill="#ad5652"></path>
    <path d="M0 459L75 430L150 412L225 438L300 481L375 363L450 430L525 438L600 471L675 390L750 370L825 377L900 444L900 601L825 601L750 601L675 601L600 601L525 601L450 601L375 601L300 601L225 601L150 601L75 601L0 601Z" fill="#934b4b"></path>
    <path d="M0 476L75 422L150 490L225 413L300 489L375 451L450 418L525 453L600 420L675 418L750 478L825 430L900 478L900 601L825 601L750 601L675 601L600 601L525 601L450 601L375 601L300 601L225 601L150 601L75 601L0 601Z" fill="#794143"></path>
    <path d="M0 506L75 501L150 473L225 538L300 479L375 485L450 486L525 497L600 475L675 523L750 502L825 485L900 481L900 601L825 601L750 601L675 601L600 601L525 601L450 601L375 601L300 601L225 601L150 601L75 601L0 601Z" fill="#60373a"></path>
    <path d="M0 554L75 554L150 536L225 533L300 564L375 564L450 544L525 543L600 552L675 550L750 530L825 568L900 515L900 601L825 601L750 601L675 601L600 601L525 601L450 601L375 601L300 601L225 601L150 601L75 601L0 601Z" fill="#472d30"></path>
</svg>